<?xml version="1.0" encoding="UTF-8" standalone="no"?>
<!DOCTYPE svg PUBLIC "-//W3C//DTD SVG 1.1//EN" "http://www.w3.org/Graphics/SVG/1.1/DTD/svg11.dtd">
<svg width="100%" height="100%" viewBox="0 0 101 101" version="1.1" xmlns="http://www.w3.org/2000/svg" xmlns:xlink="http://www.w3.org/1999/xlink" xml:space="preserve" xmlns:serif="http://www.serif.com/" style="fill-rule:evenodd;clip-rule:evenodd;">
    <g id="Calque-1" serif:id="Calque 1" transform="matrix(1,0,0,1,-24.75,-382.112)">
        <g id="path3757" transform="matrix(0.926482,0,0,0.926482,5.51385,31.7864)">
            <path d="M105,412.362C105,428.931 91.569,442.362 75,442.362C58.431,442.362 45,428.931 45,412.362C45,395.794 58.431,382.362 75,382.362C91.569,382.362 105,395.794 105,412.362Z" style="fill:rgb(220,220,220);fill-rule:nonzero;stroke:black;stroke-width:0.5px;"/>
        </g>
        <g id="path3757-1" transform="matrix(0.926482,0,0,0.926482,5.51385,68.8457)">
            <path d="M105,412.362C105,428.931 91.569,442.362 75,442.362C58.431,442.362 45,428.931 45,412.362C45,395.794 58.431,382.362 75,382.362C91.569,382.362 105,395.794 105,412.362Z" style="fill:rgb(220,220,220);fill-rule:nonzero;stroke:black;stroke-width:0.5px;"/>
        </g>
        <g id="path3757-5" transform="matrix(0,-0.926482,0.926482,0,-325.576,501.848)">
            <path d="M105,412.362C105,428.931 91.569,442.362 75,442.362C58.431,442.362 45,428.931 45,412.362C45,395.794 58.431,382.362 75,382.362C91.569,382.362 105,395.794 105,412.362Z" style="fill:rgb(220,220,220);fill-rule:nonzero;stroke:black;stroke-width:0.5px;"/>
        </g>
        <g id="path3757-1-4" transform="matrix(0,-0.926482,0.926482,0,-288.516,501.848)">
            <path d="M105,412.362C105,428.931 91.569,442.362 75,442.362C58.431,442.362 45,428.931 45,412.362C45,395.794 58.431,382.362 75,382.362C91.569,382.362 105,395.794 105,412.362Z" style="fill:rgb(220,220,220);fill-rule:nonzero;stroke:black;stroke-width:0.5px;"/>
        </g>
        <g id="path3757-9" transform="matrix(0.926482,0,0,0.926482,5.51385,31.7864)">
            <path d="M95,402.375C78.431,402.375 65,415.806 65,432.375C65,435.401 65.448,438.308 66.281,441.063C69.044,441.902 71.963,442.375 75,442.375C91.569,442.375 105,428.944 105,412.375C105,409.347 104.553,406.412 103.719,403.656C100.956,402.817 98.037,402.375 95,402.375Z" style="fill:rgb(192,192,192);fill-rule:nonzero;stroke:black;stroke-width:0.5px;"/>
        </g>
        <g id="path3757-7" transform="matrix(0.926482,0,0,0.926482,5.51385,31.7864)">
            <path d="M55,402.375C51.963,402.375 49.044,402.817 46.281,403.656C45.447,406.412 45,409.347 45,412.375C45,428.944 58.431,442.375 75,442.375C78.037,442.375 80.956,441.902 83.719,441.063C84.552,438.308 85,435.401 85,432.375C85,415.806 71.569,402.375 55,402.375Z" style="fill:rgb(192,192,192);fill-rule:nonzero;stroke:black;stroke-width:0.5px;"/>
        </g>
        <g id="path3757-1-49" transform="matrix(0.926482,0,0,0.926482,5.51385,31.7864)">
            <path d="M75,422.375C58.431,422.375 45,435.806 45,452.375C45,455.401 45.448,458.308 46.281,461.063C49.044,461.902 51.963,462.375 55,462.375C71.569,462.375 85,448.944 85,432.375C85,429.347 84.553,426.412 83.719,423.656C80.956,422.817 78.037,422.375 75,422.375Z" style="fill:rgb(192,192,192);fill-rule:nonzero;stroke:black;stroke-width:0.5px;"/>
        </g>
        <g id="path3757-1-0" transform="matrix(0.926482,0,0,0.926482,5.51385,31.7864)">
            <path d="M75,422.375C71.963,422.375 69.044,422.817 66.281,423.656C65.447,426.412 65,429.347 65,432.375C65,448.944 78.431,462.375 95,462.375C98.037,462.375 100.956,461.902 103.719,461.063C104.552,458.308 105,455.401 105,452.375C105,435.806 91.569,422.375 75,422.375Z" style="fill:rgb(192,192,192);fill-rule:nonzero;stroke:black;stroke-width:0.5px;"/>
        </g>
        <g id="path3757-5-9" transform="matrix(0.926482,0,0,0.926482,5.51385,31.7864)">
            <path d="M75,410.031C68.874,415.524 65,423.5 65,432.375C65,441.25 68.874,449.195 75,454.688C81.126,449.195 85,441.25 85,432.375C85,423.5 81.126,415.524 75,410.031Z" style="fill:rgb(169,169,169);fill-rule:nonzero;stroke:black;stroke-width:0.5px;"/>
        </g>
        <g id="path3757-75" transform="matrix(0.926482,0,0,0.926482,5.51385,31.7864)">
            <path d="M75,422.375C66.11,422.375 58.118,426.232 52.625,432.375C58.118,438.508 66.119,442.375 75,442.375C83.881,442.375 91.882,438.508 97.375,432.375C91.882,426.232 83.89,422.375 75,422.375Z" style="fill:rgb(169,169,169);fill-rule:nonzero;stroke:black;stroke-width:0.5px;"/>
        </g>
        <g id="path3757-4" transform="matrix(0.926482,0,0,0.926482,5.51385,31.7864)">
            <path d="M75,422.375C71.963,422.375 69.044,422.817 66.281,423.656C65.447,426.412 65,429.347 65,432.375C65,435.401 65.448,438.308 66.281,441.063C69.044,441.902 71.963,442.375 75,442.375C78.037,442.375 80.956,441.902 83.719,441.063C84.552,438.308 85,435.401 85,432.375C85,429.347 84.553,426.412 83.719,423.656C80.956,422.817 78.037,422.375 75,422.375Z" style="fill:white;fill-rule:nonzero;stroke:black;stroke-width:0.5px;"/>
        </g>
        <g id="text3989" transform="matrix(0.926482,0,0,0.926482,5.51385,31.7864)">
            <g transform="matrix(1,0,0,1,75,392.362)">
                <text x="-10.978px" y="0px" style="font-family:'LucidaGrande', 'Lucida Grande', sans-serif;font-weight:500;font-size:5px;">what you</text>
            </g>
            <g transform="matrix(1,0,0,1,75,398.612)">
                <text x="-6.265px" y="0px" style="font-family:'LucidaGrande', 'Lucida Grande', sans-serif;font-weight:500;font-size:5px;">LOVE</text>
            </g>
        </g>
        <g id="text3989-3" transform="matrix(0.926482,0,0,0.926482,5.51385,31.7864)">
            <g transform="matrix(1,0,0,1,37.2318,424.862)">
                <text x="-5.793px" y="0px" style="font-family:'LucidaGrande', 'Lucida Grande', sans-serif;font-weight:500;font-size:5px;">what</text>
            </g>
            <g transform="matrix(1,0,0,1,37.2318,431.112)">
                <text x="-8.981px" y="0px" style="font-family:'LucidaGrande', 'Lucida Grande', sans-serif;font-weight:500;font-size:5px;">you are</text>
            </g>
            <g transform="matrix(1,0,0,1,37.2318,437.362)">
                <text x="-7.563px" y="0px" style="font-family:'LucidaGrande', 'Lucida Grande', sans-serif;font-weight:500;font-size:5px;">GOOD</text>
            </g>
            <g transform="matrix(1,0,0,1,37.2318,443.612)">
                <text x="-3.306px" y="0px" style="font-family:'LucidaGrande', 'Lucida Grande', sans-serif;font-weight:500;font-size:5px;">AT</text>
            </g>
        </g>
        <g id="text3989-9" transform="matrix(0.926482,0,0,0.926482,5.51385,31.7864)">
            <g transform="matrix(1,0,0,1,112.375,428.173)">
                <text x="-5.793px" y="0px" style="font-family:'LucidaGrande', 'Lucida Grande', sans-serif;font-weight:500;font-size:5px;">what</text>
            </g>
            <g transform="matrix(1,0,0,1,112.375,433.573)">
                <text x="-11.664px" y="0px" style="font-family:'LucidaGrande', 'Lucida Grande', sans-serif;font-weight:500;font-size:5px;">the World</text>
            </g>
            <g transform="matrix(1,0,0,1,112.375,438.973)">
                <text x="-7.776px" y="0px" style="font-family:'LucidaGrande', 'Lucida Grande', sans-serif;font-weight:500;font-size:5px;">NEEDS</text>
            </g>
        </g>
        <g id="text3989-8" transform="matrix(0.944986,0,0,0.90834,5.51385,31.7864)">
            <g transform="matrix(1,0,0,1,72.2546,474.238)">
                <text x="-5.909px" y="0px" style="font-family:'LucidaGrande', 'Lucida Grande', sans-serif;font-weight:500;font-size:5.1px;">what</text>
            </g>
            <g transform="matrix(1,0,0,1,72.2546,479.644)">
                <text x="-13.417px" y="0px" style="font-family:'LucidaGrande', 'Lucida Grande', sans-serif;font-weight:500;font-size:5.1px;">you can be</text>
            </g>
            <g transform="matrix(1,0,0,1,72.2546,485.05)">
                <text x="-11.581px" y="0px" style="font-family:'LucidaGrande', 'Lucida Grande', sans-serif;font-weight:500;font-size:5.1px;">PAID FOR</text>
            </g>
        </g>
        <g transform="matrix(0.926482,0,0,0.926482,91.6767,417.538)">
            <g id="text3989-6">
                <text x="-9.253px" y="0px" style="font-family:'HelveticaNeue-Bold', 'Helvetica Neue';font-weight:700;font-size:5px;">Mission</text>
            </g>
        </g>
        <g transform="matrix(0.926482,0,0,0.926482,58.3273,417.538)">
            <g id="text3989-6-3">
                <text x="-9.417px" y="0px" style="font-family:'HelveticaNeue-Bold', 'Helvetica Neue';font-weight:700;font-size:5px;">Passion</text>
            </g>
        </g>
        <g transform="matrix(0.926482,0,0,0.926482,59.7795,453.076)">
            <g id="text3989-6-6">
                <text x="-12.73px" y="0px" style="font-family:'HelveticaNeue-Bold', 'Helvetica Neue';font-weight:700;font-size:5px;">Profession</text>
            </g>
        </g>
        <g transform="matrix(0.926482,0,0,0.926482,90.2573,453.076)">
            <g id="text3989-6-9">
                <text x="-10.312px" y="0px" style="font-family:'HelveticaNeue-Bold', 'Helvetica Neue';font-weight:700;font-size:5px;">V<tspan x="-7.454px -4.415px " y="0px 0px ">oc</tspan>ation</text>
            </g>
        </g>
        <g transform="matrix(0.926482,0,0,0.926482,75,434.215)">
            <g id="text3989-6-2">
                <text x="-7.14px" y="0px" style="font-family:'LucidaGrande-Bold', 'Lucida Grande', sans-serif;font-weight:600;font-size:5px;">ikigai</text>
            </g>
        </g>
    </g>
</svg>
