<svg width="650" height="640" viewBox="0 0 650 640" fill="none" xmlns="http://www.w3.org/2000/svg">
<path d="M208.482 127.112C178.582 127.112 153.782 147.612 146.682 175.312C145.882 175.312 145.282 175.112 144.482 175.112C109.182 175.112 80.4818 203.812 80.4818 239.112C80.4818 243.912 81.0817 248.612 82.1817 253.112C52.9817 265.112 32.4818 293.712 32.4818 327.112C32.4818 339.712 35.6817 351.412 40.7817 362.012C16.7817 375.812 0.48175 401.412 0.48175 431.112C0.48175 464.412 20.8818 493.012 49.8818 505.012C48.9818 509.612 48.4818 514.312 48.4818 519.112C48.4818 558.912 80.6818 591.112 120.482 591.112C124.582 591.112 128.582 590.611 132.482 589.911C142.082 618.411 168.682 639.112 200.482 639.112C240.282 639.112 272.482 606.912 272.482 567.112V191.112C272.482 155.812 243.782 127.112 208.482 127.112ZM576.482 431.112C576.482 401.412 560.182 375.812 536.182 362.012C541.382 351.412 544.482 339.712 544.482 327.112C544.482 293.712 523.982 265.112 494.782 253.112C495.782 248.612 496.482 243.912 496.482 239.112C496.482 203.812 467.782 175.112 432.482 175.112C431.682 175.112 430.982 175.312 430.282 175.312C423.182 147.612 398.382 127.112 368.482 127.112C333.182 127.112 304.482 155.712 304.482 191.112V567.112C304.482 606.912 336.682 639.112 376.482 639.112C408.282 639.112 434.882 618.411 444.482 589.911C448.382 590.611 452.382 591.112 456.482 591.112C496.282 591.112 528.482 558.912 528.482 519.112C528.482 514.312 527.982 509.612 527.082 505.012C556.082 493.012 576.482 464.412 576.482 431.112Z" fill="black"/>
<path d="M543.429 188.483C543.434 191.084 544.203 193.631 545.646 195.797L552.712 206.419C553.919 208.235 555.556 209.724 557.478 210.754C559.399 211.784 561.546 212.323 563.726 212.323H589.241C591.422 212.323 593.568 211.784 595.49 210.754C597.412 209.724 599.049 208.235 600.256 206.419L607.322 195.797C608.764 193.63 609.535 191.086 609.538 188.483L609.555 172.627H543.409L543.429 188.483ZM503.712 73.3957C503.712 91.7411 510.514 108.478 521.723 121.266C528.553 129.06 539.237 145.342 543.31 159.078C543.326 159.185 543.339 159.293 543.355 159.4H609.608C609.625 159.293 609.637 159.189 609.654 159.078C613.727 145.342 624.41 129.06 631.241 121.266C642.45 108.478 649.251 91.7411 649.251 73.3957C649.251 33.1285 616.55 0.502138 576.254 0.626176C534.077 0.75435 503.712 34.9312 503.712 73.3957ZM576.482 40.3186C558.244 40.3186 543.405 55.1578 543.405 73.3957C543.405 77.0507 540.444 80.0111 536.789 80.0111C533.134 80.0111 530.174 77.0507 530.174 73.3957C530.174 47.8602 550.946 27.0878 576.482 27.0878C580.137 27.0878 583.097 30.0482 583.097 33.7032C583.097 37.3582 580.137 40.3186 576.482 40.3186Z" fill="black"/>
<path d="M438.221 260.245L431.206 252.854L521.978 166.715C528.344 160.674 528.607 150.615 522.566 144.249L505.25 126.002C499.209 119.636 489.151 119.373 482.785 125.414L392.013 211.553L384.998 204.161C371.947 190.408 348.784 199.299 348.287 218.252L348.287 218.252L346.856 272.906C346.549 284.655 355.823 294.43 367.573 294.737C367.573 294.737 367.573 294.737 367.574 294.737L422.227 296.168C441.18 296.665 451.272 273.998 438.221 260.245Z" fill="black" stroke="white" stroke-width="21"/>
</svg>
