<svg width="16" height="16" viewBox="0 0 16 16" fill="none" xmlns="http://www.w3.org/2000/svg">
  <g clip-path="url(#clip0)">
    <g >
      <g >
        <path
          d="M3.74959 12C3.71834 12 3.70271 11.9844 3.70271 11.9531V11.8125C3.70271 11.7812 3.71834 11.7656 3.74959 11.7656H3.89021C4.22615 11.7656 4.51912 11.6953 4.76912 11.5547C4.87068 11.4961 4.95467 11.4062 5.02107 11.2852C5.08748 11.1602 5.12068 11.0215 5.12068 10.8691V4.66992C5.12068 4.42773 4.96443 4.24219 4.65193 4.11328C4.43318 4.01953 4.20076 3.97266 3.95467 3.97266H3.82576C3.79451 3.97266 3.77888 3.95703 3.77888 3.92578V3.78516C3.77888 3.75391 3.79451 3.73828 3.82576 3.73828H7.79256C7.82381 3.73828 7.83943 3.75391 7.83943 3.78516V3.92578C7.83943 3.95703 7.82381 3.97266 7.79256 3.97266H7.5406C7.13826 3.97266 6.78279 4.0293 6.4742 4.14258C6.38435 4.17383 6.32576 4.22656 6.29842 4.30078C6.27498 4.37109 6.26326 4.49414 6.26326 4.66992V11.168C6.27107 11.2344 6.30623 11.2969 6.36873 11.3555C6.43123 11.4141 6.50154 11.4434 6.57967 11.4434H8.89412C9.24178 11.4434 9.58357 11.2383 9.91951 10.8281C10.0094 10.7188 10.1207 10.5742 10.2535 10.3945C10.3863 10.2109 10.4683 10.1074 10.4996 10.084C10.6246 9.99023 10.6871 9.99219 10.6871 10.0898C10.6871 10.1133 10.6812 10.1367 10.6695 10.1602L9.78474 11.8945C9.74959 11.9648 9.70857 12 9.6617 12H3.74959Z"
          fill="#FFBE5B"/>
      </g>
      <path
        d="M3.74959 12C3.71834 12 3.70271 11.9844 3.70271 11.9531V11.8125C3.70271 11.7812 3.71834 11.7656 3.74959 11.7656H3.89021C4.22615 11.7656 4.51912 11.6953 4.76912 11.5547C4.87068 11.4961 4.95467 11.4062 5.02107 11.2852C5.08748 11.1602 5.12068 11.0215 5.12068 10.8691V4.66992C5.12068 4.42773 4.96443 4.24219 4.65193 4.11328C4.43318 4.01953 4.20076 3.97266 3.95467 3.97266H3.82576C3.79451 3.97266 3.77888 3.95703 3.77888 3.92578V3.78516C3.77888 3.75391 3.79451 3.73828 3.82576 3.73828H7.79256C7.82381 3.73828 7.83943 3.75391 7.83943 3.78516V3.92578C7.83943 3.95703 7.82381 3.97266 7.79256 3.97266H7.5406C7.13826 3.97266 6.78279 4.0293 6.4742 4.14258C6.38435 4.17383 6.32576 4.22656 6.29842 4.30078C6.27498 4.37109 6.26326 4.49414 6.26326 4.66992V11.168C6.27107 11.2344 6.30623 11.2969 6.36873 11.3555C6.43123 11.4141 6.50154 11.4434 6.57967 11.4434H8.89412C9.24178 11.4434 9.58357 11.2383 9.91951 10.8281C10.0094 10.7188 10.1207 10.5742 10.2535 10.3945C10.3863 10.2109 10.4683 10.1074 10.4996 10.084C10.6246 9.99023 10.6871 9.99219 10.6871 10.0898C10.6871 10.1133 10.6812 10.1367 10.6695 10.1602L9.78474 11.8945C9.74959 11.9648 9.70857 12 9.6617 12H3.74959Z"
        fill="#FFBE5B"/>
      <path
        d="M8.94182 12C8.90276 11.9922 8.88322 11.9648 8.88322 11.918C8.88322 11.8477 8.97502 11.8008 9.15862 11.7773C9.58049 11.7148 9.79143 11.4922 9.79143 11.1094V8.00977C9.79143 7.8457 9.70158 7.73242 9.5219 7.66992C9.44377 7.64258 9.35979 7.62109 9.26994 7.60547C9.1801 7.58594 9.10783 7.56836 9.05315 7.55273C9.00237 7.53711 8.96916 7.52344 8.95354 7.51172C8.94182 7.49609 8.93596 7.4668 8.93596 7.42383C8.93596 7.37695 8.96526 7.33789 9.02385 7.30664L10.518 6.60352C10.5649 6.58008 10.5942 6.56836 10.6059 6.56836C10.6723 6.56836 10.7055 6.61523 10.7055 6.70898V11.1094C10.7055 11.4922 10.9164 11.7148 11.3383 11.7773C11.5219 11.8008 11.6137 11.8418 11.6137 11.9004C11.6137 11.959 11.5942 11.9922 11.5551 12H8.94182ZM10.1606 4.92188C10.0004 4.92188 9.85783 4.87109 9.73283 4.76953C9.61174 4.66797 9.55119 4.52734 9.55119 4.34766C9.55119 4.16406 9.60979 4.01953 9.72697 3.91406C9.84416 3.80859 9.98283 3.75586 10.143 3.75586C10.3071 3.75586 10.4438 3.81836 10.5531 3.94336C10.6664 4.06836 10.7231 4.20312 10.7231 4.34766C10.7231 4.49219 10.6703 4.625 10.5649 4.74609C10.4594 4.86328 10.3246 4.92188 10.1606 4.92188Z"
        fill="#FFBE5B"/>
    </g>
  </g>
  <defs>
    <filter id="filter0_d" x="2.70271" y="2.73828" width="9.91098" height="10.2617" filterUnits="userSpaceOnUse"
            color-interpolation-filters="sRGB">
      <feFlood flood-opacity="0" result="BackgroundImageFix"/>
      <feColorMatrix in="SourceAlpha" type="matrix" values="0 0 0 0 0 0 0 0 0 0 0 0 0 0 0 0 0 0 127 0"/>
      <feOffset/>
      <feGaussianBlur stdDeviation="0.5"/>
      <feColorMatrix type="matrix" values="0 0 0 0 0 0 0 0 0 0 0 0 0 0 0 0 0 0 0.81 0"/>
      <feBlend mode="normal" in2="BackgroundImageFix" result="effect1_dropShadow"/>
      <feBlend mode="normal" in="SourceGraphic" in2="effect1_dropShadow" result="shape"/>
    </filter>
    <filter id="filter1_d" x="-0.297287" y="3.73828" width="14.9844" height="16.2617" filterUnits="userSpaceOnUse"
            color-interpolation-filters="sRGB">
      <feFlood flood-opacity="0" result="BackgroundImageFix"/>
      <feColorMatrix in="SourceAlpha" type="matrix" values="0 0 0 0 0 0 0 0 0 0 0 0 0 0 0 0 0 0 127 0"/>
      <feOffset dy="4"/>
      <feGaussianBlur stdDeviation="2"/>
      <feColorMatrix type="matrix" values="0 0 0 0 0 0 0 0 0 0 0 0 0 0 0 0 0 0 0.25 0"/>
      <feBlend mode="normal" in2="BackgroundImageFix" result="effect1_dropShadow"/>
      <feBlend mode="normal" in="SourceGraphic" in2="effect1_dropShadow" result="shape"/>
    </filter>
    <clipPath id="clip0">
      <rect width="16" height="16" fill="white"/>
    </clipPath>
  </defs>
</svg>
